name Walk6.mot
datacolumns 19
datarows 15
range 2.57000000 2.58400000
endheader

                time	   L_ground_force_vx	   L_ground_force_vy	   L_ground_force_vz	   L_ground_force_px	   L_ground_force_py	   L_ground_force_pz	   R_ground_force_vx	   R_ground_force_vy	   R_ground_force_vz	   R_ground_force_px	   R_ground_force_py	   R_ground_force_pz	   L_ground_torque_x	   L_ground_torque_y	   L_ground_torque_z	   R_ground_torque_x	   R_ground_torque_y	   R_ground_torque_z	
          2.57000000	         -0.00000000	          0.00000000	          0.00000000	         -0.00000000	          0.00000000	         -0.00000000	          8.44206495	         34.03289601	         11.14087869	          0.38807865	          0.00000000	          0.08914452	          0.00000000	          0.00000000	          0.00000000	          0.00000000	         -1.87178487	          0.00000000	
          2.57100000	         -0.00000000	          0.00000000	          0.00000000	         -0.00000000	          0.00000000	         -0.00000000	          7.70201969	         30.77755336	         10.55026843	          0.37435999	          0.00000000	          0.08598233	          0.00000000	          0.00000000	          0.00000000	          0.00000000	         -1.71276452	          0.00000000	
          2.57200000	         -0.00000000	          0.00000000	          0.00000000	         -0.00000000	          0.00000000	         -0.00000000	          6.99576641	         27.68428567	          9.97038681	          0.36045101	          0.00000000	          0.08277705	          0.00000000	          0.00000000	          0.00000000	          0.00000000	         -1.56081174	          0.00000000	
          2.57300000	         -0.00000000	          0.00000000	          0.00000000	         -0.00000000	          0.00000000	         -0.00000000	          6.32310636	         24.75022298	          9.40232651	          0.34639458	          0.00000000	          0.07953862	          0.00000000	          0.00000000	          0.00000000	          0.00000000	         -1.41588975	          0.00000000	
          2.57400000	         -0.00000000	          0.00000000	          0.00000000	         -0.00000000	          0.00000000	         -0.00000000	          5.68373465	         21.97243237	          8.84711400	          0.33223838	          0.00000000	          0.07627809	          0.00000000	          0.00000000	          0.00000000	          0.00000000	         -1.27794279	          0.00000000	
          2.57500000	         -0.00000000	          0.00000000	          0.00000000	         -0.00000000	          0.00000000	         -0.00000000	          5.07724406	         19.34788436	          8.30569840	          0.31803451	          0.00000000	          0.07300747	          0.00000000	          0.00000000	          0.00000000	          0.00000000	         -1.14689652	          0.00000000	
          2.57600000	         -0.00000000	          0.00000000	          0.00000000	         -0.00000000	          0.00000000	         -0.00000000	          4.50313359	         16.87338782	          7.77893386	          0.30383714	          0.00000000	          0.06973918	          0.00000000	          0.00000000	          0.00000000	          0.00000000	         -1.02265862	          0.00000000	
          2.57700000	         -0.00000000	          0.00000000	          0.00000000	         -0.00000000	          0.00000000	         -0.00000000	          3.96082008	         14.54552267	          7.26756225	          0.28969876	          0.00000000	          0.06648525	          0.00000000	          0.00000000	          0.00000000	          0.00000000	         -0.90511955	          0.00000000	
          2.57800000	         -0.00000000	          0.00000000	          0.00000000	         -0.00000000	          0.00000000	         -0.00000000	          3.44964931	         12.36061816	          6.77220716	          0.27566778	          0.00000000	          0.06325675	          0.00000000	          0.00000000	          0.00000000	          0.00000000	         -0.79415391	          0.00000000	
          2.57900000	         -0.00000000	          0.00000000	          0.00000000	         -0.00000000	          0.00000000	         -0.00000000	          2.96890499	         10.31477543	          6.29337863	          0.26178808	          0.00000000	          0.06006372	          0.00000000	          0.00000000	          0.00000000	          0.00000000	         -0.68962210	          0.00000000	
          2.58000000	         -0.00000000	         -0.00000000	          0.00000000	         -0.00000000	          0.00000000	         -0.00000000	          2.51781675	          8.40390164	          5.83148088	          0.24809926	          0.00000000	          0.05691521	          0.00000000	          0.00000000	          0.00000000	          0.00000000	         -0.59137211	          0.00000000	
          2.58100000	         -0.00000000	         -0.00000000	          0.00000000	         -0.00000000	          0.00000000	         -0.00000000	          2.09556766	          6.62374191	          5.38681979	          0.23463681	          0.00000000	          0.05381932	          0.00000000	          0.00000000	          0.00000000	          0.00000000	         -0.49924108	          0.00000000	
          2.58200000	         -0.00000000	         -0.00000000	          0.00000000	         -0.00000000	          0.00000000	         -0.00000000	          1.70130129	          4.96990919	          4.95961010	          0.22143236	          0.00000000	          0.05078329	          0.00000000	          0.00000000	          0.00000000	          0.00000000	         -0.41305690	          0.00000000	
          2.58300000	         -0.00000000	         -0.00000000	          0.00000000	         -0.00000000	          0.00000000	         -0.00000000	          1.33412827	          3.43791209	          4.54998234	          0.20851386	          0.00000000	          0.04781350	          0.00000000	          0.00000000	          0.00000000	          0.00000000	         -0.33263961	          0.00000000	
          2.58400000	         -0.00000000	         -0.00000000	          0.00000000	         -0.00000000	          0.00000000	         -0.00000000	          0.99313247	          2.02318069	          4.15798952	          0.19590582	          0.00000000	          0.04491554	          0.00000000	          0.00000000	          0.00000000	          0.00000000	         -0.25780276	          0.00000000	
